<svg width="7" height="7" viewBox="0 0 7 7" fill="none" xmlns="http://www.w3.org/2000/svg">
<path d="M3.68994 6.9502C4.104 6.9502 4.49463 6.87207 4.86182 6.71582C5.22119 6.55957 5.5376 6.34473 5.81104 6.07129C6.08447 5.79785 6.29932 5.48145 6.45557 5.12207C6.61182 4.75488 6.68994 4.36426 6.68994 3.9502C6.68994 3.53613 6.61182 3.14551 6.45557 2.77832C6.29932 2.41895 6.08447 2.10254 5.81104 1.8291C5.5376 1.55566 5.22119 1.34082 4.86182 1.18457C4.49463 1.02832 4.104 0.950195 3.68994 0.950195C3.27588 0.950195 2.88525 1.02832 2.51807 1.18457C2.15869 1.34082 1.84229 1.55566 1.56885 1.8291C1.29541 2.10254 1.08057 2.41895 0.924316 2.77832C0.768066 3.14551 0.689941 3.53613 0.689941 3.9502C0.689941 4.36426 0.768066 4.75488 0.924316 5.12207C1.08057 5.48145 1.29541 5.79785 1.56885 6.07129C1.84229 6.34473 2.15869 6.55957 2.51807 6.71582C2.88525 6.87207 3.27588 6.9502 3.68994 6.9502Z" fill="#757C8E"/>
</svg>
