<svg width="7" height="7" viewBox="0 0 7 7" fill="none" xmlns="http://www.w3.org/2000/svg">
<path d="M3.83984 6.16992C4.25391 6.16992 4.64453 6.0918 5.01172 5.93555C5.37109 5.7793 5.6875 5.56445 5.96094 5.29102C6.23438 5.01758 6.44922 4.70117 6.60547 4.3418C6.76172 3.97461 6.83984 3.58398 6.83984 3.16992C6.83984 2.75586 6.76172 2.36523 6.60547 1.99805C6.44922 1.63867 6.23438 1.32227 5.96094 1.04883C5.6875 0.775391 5.37109 0.560547 5.01172 0.404297C4.64453 0.248047 4.25391 0.169922 3.83984 0.169922C3.42578 0.169922 3.03516 0.248047 2.66797 0.404297C2.30859 0.560547 1.99219 0.775391 1.71875 1.04883C1.44531 1.32227 1.23047 1.63867 1.07422 1.99805C0.917969 2.36523 0.839844 2.75586 0.839844 3.16992C0.839844 3.58398 0.917969 3.97461 1.07422 4.3418C1.23047 4.70117 1.44531 5.01758 1.71875 5.29102C1.99219 5.56445 2.30859 5.7793 2.66797 5.93555C3.03516 6.0918 3.42578 6.16992 3.83984 6.16992Z" fill="#757C8E"/>
</svg>
