<svg width="6" height="7" viewBox="0 0 6 7" fill="none" xmlns="http://www.w3.org/2000/svg">
<path d="M3 6.46875C3.41406 6.46875 3.80469 6.39062 4.17188 6.23438C4.53125 6.07812 4.84766 5.86328 5.12109 5.58984C5.39453 5.31641 5.60938 5 5.76562 4.64062C5.92188 4.27344 6 3.88281 6 3.46875C6 3.05469 5.92188 2.66406 5.76562 2.29688C5.60938 1.9375 5.39453 1.62109 5.12109 1.34766C4.84766 1.07422 4.53125 0.859375 4.17188 0.703125C3.80469 0.546875 3.41406 0.46875 3 0.46875C2.58594 0.46875 2.19531 0.546875 1.82812 0.703125C1.46875 0.859375 1.15234 1.07422 0.878906 1.34766C0.605469 1.62109 0.390625 1.9375 0.234375 2.29688C0.078125 2.66406 0 3.05469 0 3.46875C0 3.88281 0.078125 4.27344 0.234375 4.64062C0.390625 5 0.605469 5.31641 0.878906 5.58984C1.15234 5.86328 1.46875 6.07812 1.82812 6.23438C2.19531 6.39062 2.58594 6.46875 3 6.46875Z" fill="#757C8E"/>
</svg>
