<svg width="6" height="7" viewBox="0 0 6 7" fill="none" xmlns="http://www.w3.org/2000/svg">
<path d="M3 6.43945C3.41406 6.43945 3.80469 6.36133 4.17188 6.20508C4.53125 6.04883 4.84766 5.83398 5.12109 5.56055C5.39453 5.28711 5.60938 4.9707 5.76562 4.61133C5.92188 4.24414 6 3.85352 6 3.43945C6 3.02539 5.92188 2.63477 5.76562 2.26758C5.60938 1.9082 5.39453 1.5918 5.12109 1.31836C4.84766 1.04492 4.53125 0.830078 4.17188 0.673828C3.80469 0.517578 3.41406 0.439453 3 0.439453C2.58594 0.439453 2.19531 0.517578 1.82812 0.673828C1.46875 0.830078 1.15234 1.04492 0.878906 1.31836C0.605469 1.5918 0.390625 1.9082 0.234375 2.26758C0.078125 2.63477 0 3.02539 0 3.43945C0 3.85352 0.078125 4.24414 0.234375 4.61133C0.390625 4.9707 0.605469 5.28711 0.878906 5.56055C1.15234 5.83398 1.46875 6.04883 1.82812 6.20508C2.19531 6.36133 2.58594 6.43945 3 6.43945Z" fill="#757C8E"/>
</svg>
