<svg width="6" height="7" viewBox="0 0 6 7" fill="none" xmlns="http://www.w3.org/2000/svg">
<path d="M3 6.66895C3.41406 6.66895 3.80469 6.59082 4.17188 6.43457C4.53125 6.27832 4.84766 6.06348 5.12109 5.79004C5.39453 5.5166 5.60938 5.2002 5.76562 4.84082C5.92188 4.47363 6 4.08301 6 3.66895C6 3.25488 5.92188 2.86426 5.76562 2.49707C5.60938 2.1377 5.39453 1.82129 5.12109 1.54785C4.84766 1.27441 4.53125 1.05957 4.17188 0.90332C3.80469 0.74707 3.41406 0.668945 3 0.668945C2.58594 0.668945 2.19531 0.74707 1.82812 0.90332C1.46875 1.05957 1.15234 1.27441 0.878906 1.54785C0.605469 1.82129 0.390625 2.1377 0.234375 2.49707C0.078125 2.86426 0 3.25488 0 3.66895C0 4.08301 0.078125 4.47363 0.234375 4.84082C0.390625 5.2002 0.605469 5.5166 0.878906 5.79004C1.15234 6.06348 1.46875 6.27832 1.82812 6.43457C2.19531 6.59082 2.58594 6.66895 3 6.66895Z" fill="#757C8E"/>
</svg>
