<svg width="6" height="7" viewBox="0 0 6 7" fill="none" xmlns="http://www.w3.org/2000/svg">
<path d="M3 6.69922C3.41406 6.69922 3.80469 6.62109 4.17188 6.46484C4.53125 6.30859 4.84766 6.09375 5.12109 5.82031C5.39453 5.54688 5.60938 5.23047 5.76562 4.87109C5.92188 4.50391 6 4.11328 6 3.69922C6 3.28516 5.92188 2.89453 5.76562 2.52734C5.60938 2.16797 5.39453 1.85156 5.12109 1.57812C4.84766 1.30469 4.53125 1.08984 4.17188 0.933594C3.80469 0.777344 3.41406 0.699219 3 0.699219C2.58594 0.699219 2.19531 0.777344 1.82812 0.933594C1.46875 1.08984 1.15234 1.30469 0.878906 1.57812C0.605469 1.85156 0.390625 2.16797 0.234375 2.52734C0.078125 2.89453 0 3.28516 0 3.69922C0 4.11328 0.078125 4.50391 0.234375 4.87109C0.390625 5.23047 0.605469 5.54688 0.878906 5.82031C1.15234 6.09375 1.46875 6.30859 1.82812 6.46484C2.19531 6.62109 2.58594 6.69922 3 6.69922Z" fill="#757C8E"/>
</svg>
