<svg width="15" height="15" viewBox="0 0 15 15" fill="none" xmlns="http://www.w3.org/2000/svg">
<path d="M9.79808 2.16211C9.20433 1.89128 8.58193 1.72461 7.93089 1.66211C7.27985 1.59961 6.63141 1.64128 5.98558 1.78711C5.35016 1.93294 4.75381 2.17513 4.19651 2.51367C3.63922 2.85221 3.15224 3.27148 2.73558 3.77148C2.31891 4.27148 1.99339 4.82617 1.75901 5.43555C1.52464 6.04492 1.39183 6.67253 1.36058 7.31836C1.35016 7.50586 1.27464 7.66471 1.13401 7.79492C0.993389 7.92513 0.829327 7.98503 0.641827 7.97461C0.454327 7.96419 0.298077 7.88867 0.173077 7.74805C0.0480769 7.60742 -0.00921474 7.44336 0.00120192 7.25586C0.0324519 6.46419 0.19391 5.69336 0.485577 4.94336C0.777244 4.19336 1.17829 3.51107 1.6887 2.89648C2.19912 2.2819 2.79808 1.76628 3.48558 1.34961C4.17308 0.932942 4.90745 0.630859 5.6887 0.443359C6.46995 0.266276 7.26162 0.219401 8.0637 0.302734C8.86578 0.386067 9.63141 0.594401 10.3606 0.927734C10.8606 1.1569 11.3319 1.43815 11.7746 1.77148C12.2173 2.10482 12.6158 2.48503 12.97 2.91211V0.990234C12.97 0.802734 13.0351 0.64388 13.1653 0.513672C13.2955 0.383464 13.4543 0.318359 13.6418 0.318359C13.8293 0.318359 13.9908 0.383464 14.1262 0.513672C14.2616 0.64388 14.3293 0.802734 14.3293 0.990234V4.97461C14.3293 5.16211 14.2616 5.32096 14.1262 5.45117C13.9908 5.58138 13.8293 5.64648 13.6418 5.64648H9.65745C9.46995 5.64648 9.30849 5.58138 9.17308 5.45117C9.03766 5.32096 8.96995 5.16211 8.96995 4.97461C8.96995 4.78711 9.03766 4.62565 9.17308 4.49023C9.30849 4.35482 9.46995 4.28711 9.65745 4.28711H12.2981C11.9856 3.82878 11.6184 3.41732 11.1965 3.05273C10.7746 2.68815 10.3085 2.39128 9.79808 2.16211ZM14.0168 7.27148C14.2043 7.2819 14.3606 7.35742 14.4856 7.49805C14.6106 7.63867 14.6679 7.80273 14.6575 7.99023C14.6158 8.7819 14.4491 9.55013 14.1575 10.2949C13.8658 11.0397 13.4595 11.7194 12.9387 12.334C12.4179 12.9382 11.8163 13.446 11.134 13.8574C10.4517 14.2689 9.71995 14.5632 8.9387 14.7402C8.15745 14.9173 7.36839 14.9642 6.57151 14.8809C5.77464 14.7975 5.01162 14.5892 4.28245 14.2559C3.78245 14.0267 3.3137 13.7428 2.8762 13.4043C2.4387 13.0658 2.04287 12.6882 1.6887 12.2715V14.2559C1.6887 14.4434 1.6236 14.6022 1.49339 14.7324C1.36318 14.8626 1.20433 14.9277 1.01683 14.9277C0.829327 14.9277 0.667869 14.8626 0.532452 14.7324C0.397035 14.6022 0.329327 14.4434 0.329327 14.2559V10.2715C0.329327 10.084 0.397035 9.92253 0.532452 9.78711C0.667869 9.65169 0.829327 9.58398 1.01683 9.58398H5.0012C5.1887 9.58398 5.35016 9.65169 5.48558 9.78711C5.62099 9.92253 5.6887 10.084 5.6887 10.2715C5.6887 10.459 5.62099 10.6204 5.48558 10.7559C5.35016 10.8913 5.1887 10.959 5.0012 10.959H2.40745C2.70954 11.4069 3.06891 11.8053 3.48558 12.1543C3.90224 12.5033 4.35537 12.7871 4.84495 13.0059C5.4387 13.2767 6.0611 13.446 6.71214 13.5137C7.36318 13.5814 8.00641 13.5475 8.64183 13.4121C9.27724 13.2663 9.8736 13.0267 10.4309 12.6934C10.9882 12.36 11.4752 11.9434 11.8918 11.4434C12.3189 10.9434 12.6522 10.3939 12.8918 9.79492C13.1314 9.19596 13.2668 8.56836 13.2981 7.91211C13.3085 7.72461 13.384 7.56836 13.5246 7.44336C13.6653 7.31836 13.8293 7.26107 14.0168 7.27148Z" fill="#212327"/>
</svg>
