<svg width="7" height="7" viewBox="0 0 7 7" fill="none" xmlns="http://www.w3.org/2000/svg">
<path d="M3.83984 6.9502C4.25391 6.9502 4.64453 6.87207 5.01172 6.71582C5.37109 6.55957 5.6875 6.34473 5.96094 6.07129C6.23438 5.79785 6.44922 5.48145 6.60547 5.12207C6.76172 4.75488 6.83984 4.36426 6.83984 3.9502C6.83984 3.53613 6.76172 3.14551 6.60547 2.77832C6.44922 2.41895 6.23438 2.10254 5.96094 1.8291C5.6875 1.55566 5.37109 1.34082 5.01172 1.18457C4.64453 1.02832 4.25391 0.950195 3.83984 0.950195C3.42578 0.950195 3.03516 1.02832 2.66797 1.18457C2.30859 1.34082 1.99219 1.55566 1.71875 1.8291C1.44531 2.10254 1.23047 2.41895 1.07422 2.77832C0.917969 3.14551 0.839844 3.53613 0.839844 3.9502C0.839844 4.36426 0.917969 4.75488 1.07422 5.12207C1.23047 5.48145 1.44531 5.79785 1.71875 6.07129C1.99219 6.34473 2.30859 6.55957 2.66797 6.71582C3.03516 6.87207 3.42578 6.9502 3.83984 6.9502Z" fill="#757C8E"/>
</svg>
