<svg width="7" height="7" viewBox="0 0 7 7" fill="none" xmlns="http://www.w3.org/2000/svg">
<path d="M3.83984 6.36035C4.25391 6.36035 4.64453 6.28223 5.01172 6.12598C5.37109 5.96973 5.6875 5.75488 5.96094 5.48145C6.23438 5.20801 6.44922 4.8916 6.60547 4.53223C6.76172 4.16504 6.83984 3.77441 6.83984 3.36035C6.83984 2.94629 6.76172 2.55566 6.60547 2.18848C6.44922 1.8291 6.23438 1.5127 5.96094 1.23926C5.6875 0.96582 5.37109 0.750977 5.01172 0.594727C4.64453 0.438477 4.25391 0.360352 3.83984 0.360352C3.42578 0.360352 3.03516 0.438477 2.66797 0.594727C2.30859 0.750977 1.99219 0.96582 1.71875 1.23926C1.44531 1.5127 1.23047 1.8291 1.07422 2.18848C0.917969 2.55566 0.839844 2.94629 0.839844 3.36035C0.839844 3.77441 0.917969 4.16504 1.07422 4.53223C1.23047 4.8916 1.44531 5.20801 1.71875 5.48145C1.99219 5.75488 2.30859 5.96973 2.66797 6.12598C3.03516 6.28223 3.42578 6.36035 3.83984 6.36035Z" fill="#757C8E"/>
</svg>
