<svg width="6" height="7" viewBox="0 0 6 7" fill="none" xmlns="http://www.w3.org/2000/svg">
<path d="M3 6.73047C3.41406 6.73047 3.80469 6.65234 4.17188 6.49609C4.53125 6.33984 4.84766 6.125 5.12109 5.85156C5.39453 5.57812 5.60938 5.26172 5.76562 4.90234C5.92188 4.53516 6 4.14453 6 3.73047C6 3.31641 5.92188 2.92578 5.76562 2.55859C5.60938 2.19922 5.39453 1.88281 5.12109 1.60938C4.84766 1.33594 4.53125 1.12109 4.17188 0.964844C3.80469 0.808594 3.41406 0.730469 3 0.730469C2.58594 0.730469 2.19531 0.808594 1.82812 0.964844C1.46875 1.12109 1.15234 1.33594 0.878906 1.60938C0.605469 1.88281 0.390625 2.19922 0.234375 2.55859C0.078125 2.92578 0 3.31641 0 3.73047C0 4.14453 0.078125 4.53516 0.234375 4.90234C0.390625 5.26172 0.605469 5.57812 0.878906 5.85156C1.15234 6.125 1.46875 6.33984 1.82812 6.49609C2.19531 6.65234 2.58594 6.73047 3 6.73047Z" fill="#757C8E"/>
</svg>
