<svg width="6" height="7" viewBox="0 0 6 7" fill="none" xmlns="http://www.w3.org/2000/svg">
<path d="M3 6.97852C3.41406 6.97852 3.80469 6.90039 4.17188 6.74414C4.53125 6.58789 4.84766 6.37305 5.12109 6.09961C5.39453 5.82617 5.60938 5.50977 5.76562 5.15039C5.92188 4.7832 6 4.39258 6 3.97852C6 3.56445 5.92188 3.17383 5.76562 2.80664C5.60938 2.44727 5.39453 2.13086 5.12109 1.85742C4.84766 1.58398 4.53125 1.36914 4.17188 1.21289C3.80469 1.05664 3.41406 0.978516 3 0.978516C2.58594 0.978516 2.19531 1.05664 1.82812 1.21289C1.46875 1.36914 1.15234 1.58398 0.878906 1.85742C0.605469 2.13086 0.390625 2.44727 0.234375 2.80664C0.078125 3.17383 0 3.56445 0 3.97852C0 4.39258 0.078125 4.7832 0.234375 5.15039C0.390625 5.50977 0.605469 5.82617 0.878906 6.09961C1.15234 6.37305 1.46875 6.58789 1.82812 6.74414C2.19531 6.90039 2.58594 6.97852 3 6.97852Z" fill="#757C8E"/>
</svg>
