<svg width="6" height="7" viewBox="0 0 6 7" fill="none" xmlns="http://www.w3.org/2000/svg">
<path d="M3 6.0293C3.41406 6.0293 3.80469 5.95117 4.17188 5.79492C4.53125 5.63867 4.84766 5.42383 5.12109 5.15039C5.39453 4.87695 5.60938 4.56055 5.76562 4.20117C5.92188 3.83398 6 3.44336 6 3.0293C6 2.61523 5.92188 2.22461 5.76562 1.85742C5.60938 1.49805 5.39453 1.18164 5.12109 0.908203C4.84766 0.634766 4.53125 0.419922 4.17188 0.263672C3.80469 0.107422 3.41406 0.0292969 3 0.0292969C2.58594 0.0292969 2.19531 0.107422 1.82812 0.263672C1.46875 0.419922 1.15234 0.634766 0.878906 0.908203C0.605469 1.18164 0.390625 1.49805 0.234375 1.85742C0.078125 2.22461 0 2.61523 0 3.0293C0 3.44336 0.078125 3.83398 0.234375 4.20117C0.390625 4.56055 0.605469 4.87695 0.878906 5.15039C1.15234 5.42383 1.46875 5.63867 1.82812 5.79492C2.19531 5.95117 2.58594 6.0293 3 6.0293Z" fill="#757C8E"/>
</svg>
