<svg width="6" height="7" viewBox="0 0 6 7" fill="none" xmlns="http://www.w3.org/2000/svg">
<path d="M3 6.79883C3.41406 6.79883 3.80469 6.7207 4.17188 6.56445C4.53125 6.4082 4.84766 6.19336 5.12109 5.91992C5.39453 5.64648 5.60938 5.33008 5.76562 4.9707C5.92188 4.60352 6 4.21289 6 3.79883C6 3.38477 5.92188 2.99414 5.76562 2.62695C5.60938 2.26758 5.39453 1.95117 5.12109 1.67773C4.84766 1.4043 4.53125 1.18945 4.17188 1.0332C3.80469 0.876953 3.41406 0.798828 3 0.798828C2.58594 0.798828 2.19531 0.876953 1.82812 1.0332C1.46875 1.18945 1.15234 1.4043 0.878906 1.67773C0.605469 1.95117 0.390625 2.26758 0.234375 2.62695C0.078125 2.99414 0 3.38477 0 3.79883C0 4.21289 0.078125 4.60352 0.234375 4.9707C0.390625 5.33008 0.605469 5.64648 0.878906 5.91992C1.15234 6.19336 1.46875 6.4082 1.82812 6.56445C2.19531 6.7207 2.58594 6.79883 3 6.79883Z" fill="#757C8E"/>
</svg>
