<svg width="6" height="7" viewBox="0 0 6 7" fill="none" xmlns="http://www.w3.org/2000/svg">
<path d="M3 6.20898C3.41406 6.20898 3.80469 6.13086 4.17188 5.97461C4.53125 5.81836 4.84766 5.60352 5.12109 5.33008C5.39453 5.05664 5.60938 4.74023 5.76562 4.38086C5.92188 4.01367 6 3.62305 6 3.20898C6 2.79492 5.92188 2.4043 5.76562 2.03711C5.60938 1.67773 5.39453 1.36133 5.12109 1.08789C4.84766 0.814453 4.53125 0.599609 4.17188 0.443359C3.80469 0.287109 3.41406 0.208984 3 0.208984C2.58594 0.208984 2.19531 0.287109 1.82812 0.443359C1.46875 0.599609 1.15234 0.814453 0.878906 1.08789C0.605469 1.36133 0.390625 1.67773 0.234375 2.03711C0.078125 2.4043 0 2.79492 0 3.20898C0 3.62305 0.078125 4.01367 0.234375 4.38086C0.390625 4.74023 0.605469 5.05664 0.878906 5.33008C1.15234 5.60352 1.46875 5.81836 1.82812 5.97461C2.19531 6.13086 2.58594 6.20898 3 6.20898Z" fill="#757C8E"/>
</svg>
