<svg width="6" height="7" viewBox="0 0 6 7" fill="none" xmlns="http://www.w3.org/2000/svg">
<path d="M3 6.28906C3.41406 6.28906 3.80469 6.21094 4.17188 6.05469C4.53125 5.89844 4.84766 5.68359 5.12109 5.41016C5.39453 5.13672 5.60938 4.82031 5.76562 4.46094C5.92188 4.09375 6 3.70312 6 3.28906C6 2.875 5.92188 2.48438 5.76562 2.11719C5.60938 1.75781 5.39453 1.44141 5.12109 1.16797C4.84766 0.894531 4.53125 0.679688 4.17188 0.523438C3.80469 0.367188 3.41406 0.289062 3 0.289062C2.58594 0.289062 2.19531 0.367188 1.82812 0.523438C1.46875 0.679688 1.15234 0.894531 0.878906 1.16797C0.605469 1.44141 0.390625 1.75781 0.234375 2.11719C0.078125 2.48438 0 2.875 0 3.28906C0 3.70312 0.078125 4.09375 0.234375 4.46094C0.390625 4.82031 0.605469 5.13672 0.878906 5.41016C1.15234 5.68359 1.46875 5.89844 1.82812 6.05469C2.19531 6.21094 2.58594 6.28906 3 6.28906Z" fill="#757C8E"/>
</svg>
