<svg width="17" height="14" viewBox="0 0 17 14" fill="none" xmlns="http://www.w3.org/2000/svg">
<path d="M10.6562 0.520559C10.7812 0.468476 10.9115 0.455455 11.0469 0.481497C11.1823 0.507539 11.2969 0.567434 11.3906 0.661184L16.0625 5.34868C16.1875 5.4841 16.25 5.64556 16.25 5.83306C16.25 6.02056 16.1875 6.17681 16.0625 6.30181L11.3906 11.0049C11.2969 11.0987 11.1823 11.1586 11.0469 11.1846C10.9115 11.2107 10.7812 11.1976 10.6562 11.1456C10.5312 11.0935 10.4323 11.0101 10.3594 10.8956C10.2865 10.781 10.25 10.656 10.25 10.5206V8.50493H9.92188C9.01562 8.50493 8.14583 8.62473 7.3125 8.86431C6.47917 9.10389 5.70052 9.43983 4.97656 9.87212C4.2526 10.3044 3.59375 10.8279 3 11.4424C2.41667 12.0466 1.91667 12.7185 1.5 13.4581C1.42708 13.5935 1.32031 13.6898 1.17969 13.7471C1.03906 13.8044 0.895833 13.8122 0.75 13.7706C0.604167 13.7289 0.484375 13.6482 0.390625 13.5284C0.296875 13.4086 0.25 13.2706 0.25 13.1143C0.260417 11.7393 0.53125 10.4476 1.0625 9.23931C1.59375 8.02056 2.3099 6.96066 3.21094 6.05962C4.11198 5.15858 5.16667 4.44764 6.375 3.92681C7.58333 3.40598 8.875 3.14556 10.25 3.14556V1.12993C10.25 0.994517 10.2865 0.872122 10.3594 0.762747C10.4323 0.653372 10.5312 0.572642 10.6562 0.520559ZM11.5781 2.75493V4.48931H10.25C9.28125 4.48931 8.35938 4.64035 7.48438 4.94243C6.60938 5.24452 5.8099 5.66639 5.08594 6.20806C4.36198 6.74973 3.73438 7.39035 3.20312 8.12993C2.67188 8.86952 2.26562 9.68202 1.98438 10.5674C2.48438 10.0466 3.03125 9.57785 3.625 9.16118C4.22917 8.7341 4.86719 8.37473 5.53906 8.08306C6.21094 7.79139 6.91146 7.56743 7.64062 7.41118C8.38021 7.25493 9.14062 7.17681 9.92188 7.17681H11.5781V8.91118L14.6406 5.83306L11.5781 2.75493Z" fill="#757C8E"/>
</svg>
