<svg width="6" height="7" viewBox="0 0 6 7" fill="none" xmlns="http://www.w3.org/2000/svg">
<path d="M3 6.87891C3.41406 6.87891 3.80469 6.80078 4.17188 6.64453C4.53125 6.48828 4.84766 6.27344 5.12109 6C5.39453 5.72656 5.60938 5.41016 5.76562 5.05078C5.92188 4.68359 6 4.29297 6 3.87891C6 3.46484 5.92188 3.07422 5.76562 2.70703C5.60938 2.34766 5.39453 2.03125 5.12109 1.75781C4.84766 1.48438 4.53125 1.26953 4.17188 1.11328C3.80469 0.957031 3.41406 0.878906 3 0.878906C2.58594 0.878906 2.19531 0.957031 1.82812 1.11328C1.46875 1.26953 1.15234 1.48438 0.878906 1.75781C0.605469 2.03125 0.390625 2.34766 0.234375 2.70703C0.078125 3.07422 0 3.46484 0 3.87891C0 4.29297 0.078125 4.68359 0.234375 5.05078C0.390625 5.41016 0.605469 5.72656 0.878906 6C1.15234 6.27344 1.46875 6.48828 1.82812 6.64453C2.19531 6.80078 2.58594 6.87891 3 6.87891Z" fill="#757C8E"/>
</svg>
