<svg width="6" height="7" viewBox="0 0 6 7" fill="none" xmlns="http://www.w3.org/2000/svg">
<path d="M3 6.00879C3.41406 6.00879 3.80469 5.93066 4.17188 5.77441C4.53125 5.61816 4.84766 5.40332 5.12109 5.12988C5.39453 4.85645 5.60938 4.54004 5.76562 4.18066C5.92188 3.81348 6 3.42285 6 3.00879C6 2.59473 5.92188 2.2041 5.76562 1.83691C5.60938 1.47754 5.39453 1.16113 5.12109 0.887695C4.84766 0.614258 4.53125 0.399414 4.17188 0.243164C3.80469 0.0869141 3.41406 0.00878906 3 0.00878906C2.58594 0.00878906 2.19531 0.0869141 1.82812 0.243164C1.46875 0.399414 1.15234 0.614258 0.878906 0.887695C0.605469 1.16113 0.390625 1.47754 0.234375 1.83691C0.078125 2.2041 0 2.59473 0 3.00879C0 3.42285 0.078125 3.81348 0.234375 4.18066C0.390625 4.54004 0.605469 4.85645 0.878906 5.12988C1.15234 5.40332 1.46875 5.61816 1.82812 5.77441C2.19531 5.93066 2.58594 6.00879 3 6.00879Z" fill="#757C8E"/>
</svg>
