<svg width="6" height="7" viewBox="0 0 6 7" fill="none" xmlns="http://www.w3.org/2000/svg">
<path d="M3 6.59863C3.41406 6.59863 3.80469 6.52051 4.17188 6.36426C4.53125 6.20801 4.84766 5.99316 5.12109 5.71973C5.39453 5.44629 5.60938 5.12988 5.76562 4.77051C5.92188 4.40332 6 4.0127 6 3.59863C6 3.18457 5.92188 2.79395 5.76562 2.42676C5.60938 2.06738 5.39453 1.75098 5.12109 1.47754C4.84766 1.2041 4.53125 0.989258 4.17188 0.833008C3.80469 0.676758 3.41406 0.598633 3 0.598633C2.58594 0.598633 2.19531 0.676758 1.82812 0.833008C1.46875 0.989258 1.15234 1.2041 0.878906 1.47754C0.605469 1.75098 0.390625 2.06738 0.234375 2.42676C0.078125 2.79395 0 3.18457 0 3.59863C0 4.0127 0.078125 4.40332 0.234375 4.77051C0.390625 5.12988 0.605469 5.44629 0.878906 5.71973C1.15234 5.99316 1.46875 6.20801 1.82812 6.36426C2.19531 6.52051 2.58594 6.59863 3 6.59863Z" fill="#757C8E"/>
</svg>
