<svg width="7" height="7" viewBox="0 0 7 7" fill="none" xmlns="http://www.w3.org/2000/svg">
<path d="M3.83984 6.13965C4.25391 6.13965 4.64453 6.06152 5.01172 5.90527C5.37109 5.74902 5.6875 5.53418 5.96094 5.26074C6.23438 4.9873 6.44922 4.6709 6.60547 4.31152C6.76172 3.94434 6.83984 3.55371 6.83984 3.13965C6.83984 2.72559 6.76172 2.33496 6.60547 1.96777C6.44922 1.6084 6.23438 1.29199 5.96094 1.01855C5.6875 0.745117 5.37109 0.530273 5.01172 0.374023C4.64453 0.217773 4.25391 0.139648 3.83984 0.139648C3.42578 0.139648 3.03516 0.217773 2.66797 0.374023C2.30859 0.530273 1.99219 0.745117 1.71875 1.01855C1.44531 1.29199 1.23047 1.6084 1.07422 1.96777C0.917969 2.33496 0.839844 2.72559 0.839844 3.13965C0.839844 3.55371 0.917969 3.94434 1.07422 4.31152C1.23047 4.6709 1.44531 4.9873 1.71875 5.26074C1.99219 5.53418 2.30859 5.74902 2.66797 5.90527C3.03516 6.06152 3.42578 6.13965 3.83984 6.13965Z" fill="#757C8E"/>
</svg>
