<svg width="6" height="7" viewBox="0 0 6 7" fill="none" xmlns="http://www.w3.org/2000/svg">
<path d="M3 6.9502C3.41406 6.9502 3.80469 6.87207 4.17188 6.71582C4.53125 6.55957 4.84766 6.34473 5.12109 6.07129C5.39453 5.79785 5.60938 5.48145 5.76562 5.12207C5.92188 4.75488 6 4.36426 6 3.9502C6 3.53613 5.92188 3.14551 5.76562 2.77832C5.60938 2.41895 5.39453 2.10254 5.12109 1.8291C4.84766 1.55566 4.53125 1.34082 4.17188 1.18457C3.80469 1.02832 3.41406 0.950195 3 0.950195C2.58594 0.950195 2.19531 1.02832 1.82812 1.18457C1.46875 1.34082 1.15234 1.55566 0.878906 1.8291C0.605469 2.10254 0.390625 2.41895 0.234375 2.77832C0.078125 3.14551 0 3.53613 0 3.9502C0 4.36426 0.078125 4.75488 0.234375 5.12207C0.390625 5.48145 0.605469 5.79785 0.878906 6.07129C1.15234 6.34473 1.46875 6.55957 1.82812 6.71582C2.19531 6.87207 2.58594 6.9502 3 6.9502Z" fill="#757C8E"/>
</svg>
