<svg width="6" height="7" viewBox="0 0 6 7" fill="none" xmlns="http://www.w3.org/2000/svg">
<path d="M3 6.8291C3.41406 6.8291 3.80469 6.75098 4.17188 6.59473C4.53125 6.43848 4.84766 6.22363 5.12109 5.9502C5.39453 5.67676 5.60938 5.36035 5.76562 5.00098C5.92188 4.63379 6 4.24316 6 3.8291C6 3.41504 5.92188 3.02441 5.76562 2.65723C5.60938 2.29785 5.39453 1.98145 5.12109 1.70801C4.84766 1.43457 4.53125 1.21973 4.17188 1.06348C3.80469 0.907227 3.41406 0.829102 3 0.829102C2.58594 0.829102 2.19531 0.907227 1.82812 1.06348C1.46875 1.21973 1.15234 1.43457 0.878906 1.70801C0.605469 1.98145 0.390625 2.29785 0.234375 2.65723C0.078125 3.02441 0 3.41504 0 3.8291C0 4.24316 0.078125 4.63379 0.234375 5.00098C0.390625 5.36035 0.605469 5.67676 0.878906 5.9502C1.15234 6.22363 1.46875 6.43848 1.82812 6.59473C2.19531 6.75098 2.58594 6.8291 3 6.8291Z" fill="#757C8E"/>
</svg>
