<svg width="13" height="15" viewBox="0 0 13 15" fill="none" xmlns="http://www.w3.org/2000/svg">
<path d="M1.26514 0.364258C1.3068 0.333008 1.34847 0.304362 1.39014 0.27832C1.4318 0.252278 1.47868 0.228841 1.53076 0.208008C1.56201 0.197591 1.59326 0.187175 1.62451 0.176758C1.65576 0.166341 1.68701 0.155925 1.71826 0.145508C1.74951 0.145508 1.78076 0.142903 1.81201 0.137695C1.84326 0.132487 1.87451 0.129883 1.90576 0.129883H10.9995C11.0308 0.129883 11.0646 0.132487 11.1011 0.137695C11.1375 0.142903 11.1714 0.145508 11.2026 0.145508C11.2339 0.155925 11.2651 0.166341 11.2964 0.176758C11.3276 0.187175 11.3589 0.197591 11.3901 0.208008C11.4422 0.228841 11.4917 0.252278 11.5386 0.27832C11.5854 0.304362 11.6297 0.333008 11.6714 0.364258C11.7026 0.395508 11.7365 0.429362 11.7729 0.46582C11.8094 0.502278 11.8381 0.54655 11.8589 0.598633C11.8901 0.6403 11.9162 0.68457 11.937 0.731445C11.9578 0.77832 11.9735 0.8278 11.9839 0.879883C12.0047 0.92155 12.0177 0.968425 12.0229 1.02051C12.0282 1.07259 12.0308 1.12467 12.0308 1.17676V13.083C12.0308 13.1351 12.0282 13.1872 12.0229 13.2393C12.0177 13.2913 12.0047 13.3382 11.9839 13.3799C11.9735 13.432 11.9578 13.4814 11.937 13.5283C11.9162 13.5752 11.8901 13.6195 11.8589 13.6611C11.8381 13.7132 11.8094 13.7575 11.7729 13.7939C11.7365 13.8304 11.7026 13.8643 11.6714 13.8955C11.6297 13.9268 11.5854 13.9554 11.5386 13.9814C11.4917 14.0075 11.4422 14.0309 11.3901 14.0518C11.3589 14.0622 11.3276 14.0726 11.2964 14.083C11.2651 14.0934 11.2339 14.1038 11.2026 14.1143C11.1714 14.1143 11.1375 14.1169 11.1011 14.1221C11.0646 14.1273 11.0308 14.1299 10.9995 14.1299C10.937 14.1299 10.8745 14.1247 10.812 14.1143C10.7495 14.1038 10.687 14.083 10.6245 14.0518C10.562 14.0309 10.5021 13.9997 10.4448 13.958C10.3875 13.9163 10.3381 13.8747 10.2964 13.833L6.45264 9.91113L2.62451 13.8174C2.57243 13.859 2.52035 13.8981 2.46826 13.9346C2.41618 13.971 2.35889 13.9997 2.29639 14.0205C2.23389 14.0518 2.16878 14.0752 2.10107 14.0908C2.03337 14.1064 1.96826 14.1143 1.90576 14.1143C1.87451 14.1143 1.84066 14.1143 1.8042 14.1143C1.76774 14.1143 1.73389 14.109 1.70264 14.0986C1.67139 14.0986 1.64014 14.0934 1.60889 14.083C1.57764 14.0726 1.5516 14.0622 1.53076 14.0518C1.47868 14.0309 1.4318 14.0075 1.39014 13.9814C1.34847 13.9554 1.3068 13.9268 1.26514 13.8955C1.22347 13.8643 1.18701 13.8278 1.15576 13.7861C1.12451 13.7445 1.09326 13.7028 1.06201 13.6611C1.03076 13.6195 1.00472 13.5752 0.983887 13.5283C0.963053 13.4814 0.947428 13.432 0.937012 13.3799C0.926595 13.3382 0.916178 13.2913 0.905762 13.2393C0.895345 13.1872 0.890137 13.1351 0.890137 13.083V1.16113C0.890137 1.10905 0.895345 1.05957 0.905762 1.0127C0.916178 0.96582 0.926595 0.916341 0.937012 0.864258C0.947428 0.812175 0.963053 0.7653 0.983887 0.723633C1.00472 0.681966 1.03076 0.6403 1.06201 0.598633C1.09326 0.556966 1.12451 0.5153 1.15576 0.473633C1.18701 0.431966 1.22347 0.395508 1.26514 0.364258ZM6.45264 8.25488L7.23389 9.03613L10.9058 12.7861V1.31738H2.01514V12.7861L6.45264 8.25488Z" fill="#757C8E"/>
</svg>
