<svg width="7" height="7" viewBox="0 0 7 7" fill="none" xmlns="http://www.w3.org/2000/svg">
<path d="M3.83984 6.5498C4.25391 6.5498 4.64453 6.47168 5.01172 6.31543C5.37109 6.15918 5.6875 5.94434 5.96094 5.6709C6.23438 5.39746 6.44922 5.08105 6.60547 4.72168C6.76172 4.35449 6.83984 3.96387 6.83984 3.5498C6.83984 3.13574 6.76172 2.74512 6.60547 2.37793C6.44922 2.01855 6.23438 1.70215 5.96094 1.42871C5.6875 1.15527 5.37109 0.94043 5.01172 0.78418C4.64453 0.62793 4.25391 0.549805 3.83984 0.549805C3.42578 0.549805 3.03516 0.62793 2.66797 0.78418C2.30859 0.94043 1.99219 1.15527 1.71875 1.42871C1.44531 1.70215 1.23047 2.01855 1.07422 2.37793C0.917969 2.74512 0.839844 3.13574 0.839844 3.5498C0.839844 3.96387 0.917969 4.35449 1.07422 4.72168C1.23047 5.08105 1.44531 5.39746 1.71875 5.6709C1.99219 5.94434 2.30859 6.15918 2.66797 6.31543C3.03516 6.47168 3.42578 6.5498 3.83984 6.5498Z" fill="#757C8E"/>
</svg>
