<svg width="7" height="7" viewBox="0 0 7 7" fill="none" xmlns="http://www.w3.org/2000/svg">
<path d="M3.68994 6.73047C4.104 6.73047 4.49463 6.65234 4.86182 6.49609C5.22119 6.33984 5.5376 6.125 5.81104 5.85156C6.08447 5.57812 6.29932 5.26172 6.45557 4.90234C6.61182 4.53516 6.68994 4.14453 6.68994 3.73047C6.68994 3.31641 6.61182 2.92578 6.45557 2.55859C6.29932 2.19922 6.08447 1.88281 5.81104 1.60938C5.5376 1.33594 5.22119 1.12109 4.86182 0.964844C4.49463 0.808594 4.104 0.730469 3.68994 0.730469C3.27588 0.730469 2.88525 0.808594 2.51807 0.964844C2.15869 1.12109 1.84229 1.33594 1.56885 1.60938C1.29541 1.88281 1.08057 2.19922 0.924316 2.55859C0.768066 2.92578 0.689941 3.31641 0.689941 3.73047C0.689941 4.14453 0.768066 4.53516 0.924316 4.90234C1.08057 5.26172 1.29541 5.57812 1.56885 5.85156C1.84229 6.125 2.15869 6.33984 2.51807 6.49609C2.88525 6.65234 3.27588 6.73047 3.68994 6.73047Z" fill="#757C8E"/>
</svg>
