<svg width="6" height="7" viewBox="0 0 6 7" fill="none" xmlns="http://www.w3.org/2000/svg">
<path d="M3 6.84863C3.41406 6.84863 3.80469 6.77051 4.17188 6.61426C4.53125 6.45801 4.84766 6.24316 5.12109 5.96973C5.39453 5.69629 5.60938 5.37988 5.76562 5.02051C5.92188 4.65332 6 4.2627 6 3.84863C6 3.43457 5.92188 3.04395 5.76562 2.67676C5.60938 2.31738 5.39453 2.00098 5.12109 1.72754C4.84766 1.4541 4.53125 1.23926 4.17188 1.08301C3.80469 0.926758 3.41406 0.848633 3 0.848633C2.58594 0.848633 2.19531 0.926758 1.82812 1.08301C1.46875 1.23926 1.15234 1.4541 0.878906 1.72754C0.605469 2.00098 0.390625 2.31738 0.234375 2.67676C0.078125 3.04395 0 3.43457 0 3.84863C0 4.2627 0.078125 4.65332 0.234375 5.02051C0.390625 5.37988 0.605469 5.69629 0.878906 5.96973C1.15234 6.24316 1.46875 6.45801 1.82812 6.61426C2.19531 6.77051 2.58594 6.84863 3 6.84863Z" fill="#757C8E"/>
</svg>
