<svg width="6" height="7" viewBox="0 0 6 7" fill="none" xmlns="http://www.w3.org/2000/svg">
<path d="M3 6.25879C3.41406 6.25879 3.80469 6.18066 4.17188 6.02441C4.53125 5.86816 4.84766 5.65332 5.12109 5.37988C5.39453 5.10645 5.60938 4.79004 5.76562 4.43066C5.92188 4.06348 6 3.67285 6 3.25879C6 2.84473 5.92188 2.4541 5.76562 2.08691C5.60938 1.72754 5.39453 1.41113 5.12109 1.1377C4.84766 0.864258 4.53125 0.649414 4.17188 0.493164C3.80469 0.336914 3.41406 0.258789 3 0.258789C2.58594 0.258789 2.19531 0.336914 1.82812 0.493164C1.46875 0.649414 1.15234 0.864258 0.878906 1.1377C0.605469 1.41113 0.390625 1.72754 0.234375 2.08691C0.078125 2.4541 0 2.84473 0 3.25879C0 3.67285 0.078125 4.06348 0.234375 4.43066C0.390625 4.79004 0.605469 5.10645 0.878906 5.37988C1.15234 5.65332 1.46875 5.86816 1.82812 6.02441C2.19531 6.18066 2.58594 6.25879 3 6.25879Z" fill="#757C8E"/>
</svg>
