<svg width="7" height="7" viewBox="0 0 7 7" fill="none" xmlns="http://www.w3.org/2000/svg">
<path d="M3.68994 6.16992C4.104 6.16992 4.49463 6.0918 4.86182 5.93555C5.22119 5.7793 5.5376 5.56445 5.81104 5.29102C6.08447 5.01758 6.29932 4.70117 6.45557 4.3418C6.61182 3.97461 6.68994 3.58398 6.68994 3.16992C6.68994 2.75586 6.61182 2.36523 6.45557 1.99805C6.29932 1.63867 6.08447 1.32227 5.81104 1.04883C5.5376 0.775391 5.22119 0.560547 4.86182 0.404297C4.49463 0.248047 4.104 0.169922 3.68994 0.169922C3.27588 0.169922 2.88525 0.248047 2.51807 0.404297C2.15869 0.560547 1.84229 0.775391 1.56885 1.04883C1.29541 1.32227 1.08057 1.63867 0.924316 1.99805C0.768066 2.36523 0.689941 2.75586 0.689941 3.16992C0.689941 3.58398 0.768066 3.97461 0.924316 4.3418C1.08057 4.70117 1.29541 5.01758 1.56885 5.29102C1.84229 5.56445 2.15869 5.7793 2.51807 5.93555C2.88525 6.0918 3.27588 6.16992 3.68994 6.16992Z" fill="#757C8E"/>
</svg>
