<svg width="15" height="10" viewBox="0 0 15 10" fill="none" xmlns="http://www.w3.org/2000/svg">
<path d="M14.0581 7.17188C14.0998 7.20312 14.1336 7.23958 14.1597 7.28125C14.1857 7.32292 14.2039 7.36458 14.2144 7.40625C14.2352 7.44792 14.2508 7.49219 14.2612 7.53906C14.2716 7.58594 14.2769 7.63542 14.2769 7.6875C14.2769 7.73958 14.2716 7.78646 14.2612 7.82812C14.2508 7.86979 14.2352 7.91146 14.2144 7.95312C14.2039 8.00521 14.1857 8.04948 14.1597 8.08594C14.1336 8.1224 14.0998 8.15625 14.0581 8.1875L13.3862 8.875C13.355 8.90625 13.3185 8.9349 13.2769 8.96094C13.2352 8.98698 13.1935 9.01042 13.1519 9.03125C13.1102 9.05208 13.0633 9.07031 13.0112 9.08594C12.9591 9.10156 12.9123 9.10938 12.8706 9.10938C12.8185 9.10938 12.769 9.10677 12.7222 9.10156C12.6753 9.09635 12.6258 9.08333 12.5737 9.0625C12.5321 9.05208 12.4904 9.03385 12.4487 9.00781C12.4071 8.98177 12.3706 8.95312 12.3394 8.92188L7.60498 4.15625L2.87061 8.90625C2.83936 8.9375 2.8029 8.96875 2.76123 9C2.71956 9.03125 2.6779 9.05208 2.63623 9.0625C2.58415 9.08333 2.53467 9.09635 2.48779 9.10156C2.44092 9.10677 2.39144 9.10938 2.33936 9.10938C2.29769 9.10938 2.25081 9.10156 2.19873 9.08594C2.14665 9.07031 2.09977 9.05208 2.05811 9.03125C2.01644 9.01042 1.97477 8.98698 1.93311 8.96094C1.89144 8.9349 1.85498 8.90625 1.82373 8.875L1.15186 8.20312C1.11019 8.16146 1.07633 8.1224 1.05029 8.08594C1.02425 8.04948 1.00602 8.01042 0.995605 7.96875C0.974772 7.92708 0.959147 7.88281 0.94873 7.83594C0.938313 7.78906 0.933105 7.74479 0.933105 7.70312C0.933105 7.65104 0.938313 7.59896 0.94873 7.54687C0.959147 7.49479 0.974772 7.44792 0.995605 7.40625C1.00602 7.36458 1.02425 7.32292 1.05029 7.28125C1.07633 7.23958 1.11019 7.20312 1.15186 7.17187L7.08936 1.23438C7.12061 1.19271 7.15446 1.15625 7.19092 1.125C7.22738 1.09375 7.27165 1.06771 7.32373 1.04688C7.3654 1.02604 7.40967 1.01042 7.45654 1C7.50342 0.989583 7.5529 0.984375 7.60498 0.984375C7.65706 0.984375 7.70654 0.989583 7.75342 1C7.80029 1.01042 7.84456 1.02604 7.88623 1.04688C7.93831 1.06771 7.98258 1.09375 8.01904 1.125C8.0555 1.15625 8.08936 1.19271 8.12061 1.23438L14.0581 7.17188Z" fill="#3E64DE"/>
</svg>
