<svg width="7" height="7" viewBox="0 0 7 7" fill="none" xmlns="http://www.w3.org/2000/svg">
<path d="M3.68994 6.5498C4.104 6.5498 4.49463 6.47168 4.86182 6.31543C5.22119 6.15918 5.5376 5.94434 5.81104 5.6709C6.08447 5.39746 6.29932 5.08105 6.45557 4.72168C6.61182 4.35449 6.68994 3.96387 6.68994 3.5498C6.68994 3.13574 6.61182 2.74512 6.45557 2.37793C6.29932 2.01855 6.08447 1.70215 5.81104 1.42871C5.5376 1.15527 5.22119 0.94043 4.86182 0.78418C4.49463 0.62793 4.104 0.549805 3.68994 0.549805C3.27588 0.549805 2.88525 0.62793 2.51807 0.78418C2.15869 0.94043 1.84229 1.15527 1.56885 1.42871C1.29541 1.70215 1.08057 2.01855 0.924316 2.37793C0.768066 2.74512 0.689941 3.13574 0.689941 3.5498C0.689941 3.96387 0.768066 4.35449 0.924316 4.72168C1.08057 5.08105 1.29541 5.39746 1.56885 5.6709C1.84229 5.94434 2.15869 6.15918 2.51807 6.31543C2.88525 6.47168 3.27588 6.5498 3.68994 6.5498Z" fill="#757C8E"/>
</svg>
