<svg width="7" height="7" viewBox="0 0 7 7" fill="none" xmlns="http://www.w3.org/2000/svg">
<path d="M3.83984 6.77051C4.25391 6.77051 4.64453 6.69238 5.01172 6.53613C5.37109 6.37988 5.6875 6.16504 5.96094 5.8916C6.23438 5.61816 6.44922 5.30176 6.60547 4.94238C6.76172 4.5752 6.83984 4.18457 6.83984 3.77051C6.83984 3.35645 6.76172 2.96582 6.60547 2.59863C6.44922 2.23926 6.23438 1.92285 5.96094 1.64941C5.6875 1.37598 5.37109 1.16113 5.01172 1.00488C4.64453 0.848633 4.25391 0.770508 3.83984 0.770508C3.42578 0.770508 3.03516 0.848633 2.66797 1.00488C2.30859 1.16113 1.99219 1.37598 1.71875 1.64941C1.44531 1.92285 1.23047 2.23926 1.07422 2.59863C0.917969 2.96582 0.839844 3.35645 0.839844 3.77051C0.839844 4.18457 0.917969 4.5752 1.07422 4.94238C1.23047 5.30176 1.44531 5.61816 1.71875 5.8916C1.99219 6.16504 2.30859 6.37988 2.66797 6.53613C3.03516 6.69238 3.42578 6.77051 3.83984 6.77051Z" fill="#757C8E"/>
</svg>
