<svg width="6" height="7" viewBox="0 0 6 7" fill="none" xmlns="http://www.w3.org/2000/svg">
<path d="M3 6.41895C3.41406 6.41895 3.80469 6.34082 4.17188 6.18457C4.53125 6.02832 4.84766 5.81348 5.12109 5.54004C5.39453 5.2666 5.60938 4.9502 5.76562 4.59082C5.92188 4.22363 6 3.83301 6 3.41895C6 3.00488 5.92188 2.61426 5.76562 2.24707C5.60938 1.8877 5.39453 1.57129 5.12109 1.29785C4.84766 1.02441 4.53125 0.80957 4.17188 0.65332C3.80469 0.49707 3.41406 0.418945 3 0.418945C2.58594 0.418945 2.19531 0.49707 1.82812 0.65332C1.46875 0.80957 1.15234 1.02441 0.878906 1.29785C0.605469 1.57129 0.390625 1.8877 0.234375 2.24707C0.078125 2.61426 0 3.00488 0 3.41895C0 3.83301 0.078125 4.22363 0.234375 4.59082C0.390625 4.9502 0.605469 5.2666 0.878906 5.54004C1.15234 5.81348 1.46875 6.02832 1.82812 6.18457C2.19531 6.34082 2.58594 6.41895 3 6.41895Z" fill="#757C8E"/>
</svg>
