<svg width="7" height="7" viewBox="0 0 7 7" fill="none" xmlns="http://www.w3.org/2000/svg">
<path d="M3.68994 6.58008C4.104 6.58008 4.49463 6.50195 4.86182 6.3457C5.22119 6.18945 5.5376 5.97461 5.81104 5.70117C6.08447 5.42773 6.29932 5.11133 6.45557 4.75195C6.61182 4.38477 6.68994 3.99414 6.68994 3.58008C6.68994 3.16602 6.61182 2.77539 6.45557 2.4082C6.29932 2.04883 6.08447 1.73242 5.81104 1.45898C5.5376 1.18555 5.22119 0.970703 4.86182 0.814453C4.49463 0.658203 4.104 0.580078 3.68994 0.580078C3.27588 0.580078 2.88525 0.658203 2.51807 0.814453C2.15869 0.970703 1.84229 1.18555 1.56885 1.45898C1.29541 1.73242 1.08057 2.04883 0.924316 2.4082C0.768066 2.77539 0.689941 3.16602 0.689941 3.58008C0.689941 3.99414 0.768066 4.38477 0.924316 4.75195C1.08057 5.11133 1.29541 5.42773 1.56885 5.70117C1.84229 5.97461 2.15869 6.18945 2.51807 6.3457C2.88525 6.50195 3.27588 6.58008 3.68994 6.58008Z" fill="#757C8E"/>
</svg>
