<svg width="6" height="7" viewBox="0 0 6 7" fill="none" xmlns="http://www.w3.org/2000/svg">
<path d="M3 6.0791C3.41406 6.0791 3.80469 6.00098 4.17188 5.84473C4.53125 5.68848 4.84766 5.47363 5.12109 5.2002C5.39453 4.92676 5.60938 4.61035 5.76562 4.25098C5.92188 3.88379 6 3.49316 6 3.0791C6 2.66504 5.92188 2.27441 5.76562 1.90723C5.60938 1.54785 5.39453 1.23145 5.12109 0.958008C4.84766 0.68457 4.53125 0.469727 4.17188 0.313477C3.80469 0.157227 3.41406 0.0791016 3 0.0791016C2.58594 0.0791016 2.19531 0.157227 1.82812 0.313477C1.46875 0.469727 1.15234 0.68457 0.878906 0.958008C0.605469 1.23145 0.390625 1.54785 0.234375 1.90723C0.078125 2.27441 0 2.66504 0 3.0791C0 3.49316 0.078125 3.88379 0.234375 4.25098C0.390625 4.61035 0.605469 4.92676 0.878906 5.2002C1.15234 5.47363 1.46875 5.68848 1.82812 5.84473C2.19531 6.00098 2.58594 6.0791 3 6.0791Z" fill="#757C8E"/>
</svg>
