<svg width="6" height="7" viewBox="0 0 6 7" fill="none" xmlns="http://www.w3.org/2000/svg">
<path d="M3 6.5498C3.41406 6.5498 3.80469 6.47168 4.17188 6.31543C4.53125 6.15918 4.84766 5.94434 5.12109 5.6709C5.39453 5.39746 5.60938 5.08105 5.76562 4.72168C5.92188 4.35449 6 3.96387 6 3.5498C6 3.13574 5.92188 2.74512 5.76562 2.37793C5.60938 2.01855 5.39453 1.70215 5.12109 1.42871C4.84766 1.15527 4.53125 0.94043 4.17188 0.78418C3.80469 0.62793 3.41406 0.549805 3 0.549805C2.58594 0.549805 2.19531 0.62793 1.82812 0.78418C1.46875 0.94043 1.15234 1.15527 0.878906 1.42871C0.605469 1.70215 0.390625 2.01855 0.234375 2.37793C0.078125 2.74512 0 3.13574 0 3.5498C0 3.96387 0.078125 4.35449 0.234375 4.72168C0.390625 5.08105 0.605469 5.39746 0.878906 5.6709C1.15234 5.94434 1.46875 6.15918 1.82812 6.31543C2.19531 6.47168 2.58594 6.5498 3 6.5498Z" fill="#757C8E"/>
</svg>
