<svg width="7" height="7" viewBox="0 0 7 7" fill="none" xmlns="http://www.w3.org/2000/svg">
<path d="M3.83984 6.58008C4.25391 6.58008 4.64453 6.50195 5.01172 6.3457C5.37109 6.18945 5.6875 5.97461 5.96094 5.70117C6.23438 5.42773 6.44922 5.11133 6.60547 4.75195C6.76172 4.38477 6.83984 3.99414 6.83984 3.58008C6.83984 3.16602 6.76172 2.77539 6.60547 2.4082C6.44922 2.04883 6.23438 1.73242 5.96094 1.45898C5.6875 1.18555 5.37109 0.970703 5.01172 0.814453C4.64453 0.658203 4.25391 0.580078 3.83984 0.580078C3.42578 0.580078 3.03516 0.658203 2.66797 0.814453C2.30859 0.970703 1.99219 1.18555 1.71875 1.45898C1.44531 1.73242 1.23047 2.04883 1.07422 2.4082C0.917969 2.77539 0.839844 3.16602 0.839844 3.58008C0.839844 3.99414 0.917969 4.38477 1.07422 4.75195C1.23047 5.11133 1.44531 5.42773 1.71875 5.70117C1.99219 5.97461 2.30859 6.18945 2.66797 6.3457C3.03516 6.50195 3.42578 6.58008 3.83984 6.58008Z" fill="#757C8E"/>
</svg>
