<svg width="6" height="7" viewBox="0 0 6 7" fill="none" xmlns="http://www.w3.org/2000/svg">
<path d="M3 6.58008C3.41406 6.58008 3.80469 6.50195 4.17188 6.3457C4.53125 6.18945 4.84766 5.97461 5.12109 5.70117C5.39453 5.42773 5.60938 5.11133 5.76562 4.75195C5.92188 4.38477 6 3.99414 6 3.58008C6 3.16602 5.92188 2.77539 5.76562 2.4082C5.60938 2.04883 5.39453 1.73242 5.12109 1.45898C4.84766 1.18555 4.53125 0.970703 4.17188 0.814453C3.80469 0.658203 3.41406 0.580078 3 0.580078C2.58594 0.580078 2.19531 0.658203 1.82812 0.814453C1.46875 0.970703 1.15234 1.18555 0.878906 1.45898C0.605469 1.73242 0.390625 2.04883 0.234375 2.4082C0.078125 2.77539 0 3.16602 0 3.58008C0 3.99414 0.078125 4.38477 0.234375 4.75195C0.390625 5.11133 0.605469 5.42773 0.878906 5.70117C1.15234 5.97461 1.46875 6.18945 1.82812 6.3457C2.19531 6.50195 2.58594 6.58008 3 6.58008Z" fill="#757C8E"/>
</svg>
