<svg width="6" height="7" viewBox="0 0 6 7" fill="none" xmlns="http://www.w3.org/2000/svg">
<path d="M3 6.61914C3.41406 6.61914 3.80469 6.54102 4.17188 6.38477C4.53125 6.22852 4.84766 6.01367 5.12109 5.74023C5.39453 5.4668 5.60938 5.15039 5.76562 4.79102C5.92188 4.42383 6 4.0332 6 3.61914C6 3.20508 5.92188 2.81445 5.76562 2.44727C5.60938 2.08789 5.39453 1.77148 5.12109 1.49805C4.84766 1.22461 4.53125 1.00977 4.17188 0.853516C3.80469 0.697266 3.41406 0.619141 3 0.619141C2.58594 0.619141 2.19531 0.697266 1.82812 0.853516C1.46875 1.00977 1.15234 1.22461 0.878906 1.49805C0.605469 1.77148 0.390625 2.08789 0.234375 2.44727C0.078125 2.81445 0 3.20508 0 3.61914C0 4.0332 0.078125 4.42383 0.234375 4.79102C0.390625 5.15039 0.605469 5.4668 0.878906 5.74023C1.15234 6.01367 1.46875 6.22852 1.82812 6.38477C2.19531 6.54102 2.58594 6.61914 3 6.61914Z" fill="#757C8E"/>
</svg>
