<svg width="14" height="16" viewBox="0 0 14 16" fill="none" xmlns="http://www.w3.org/2000/svg">
<path d="M6.67188 11.3916C6.61979 11.3916 6.57292 11.4072 6.53125 11.4385C6.48958 11.4697 6.46875 11.5166 6.46875 11.5791C6.46875 11.6312 6.48438 11.6781 6.51562 11.7197C6.54688 11.7614 6.59896 11.7822 6.67188 11.7822C6.72396 11.7822 6.77083 11.7666 6.8125 11.7354C6.85417 11.7041 6.875 11.652 6.875 11.5791C6.85417 11.5166 6.82812 11.4697 6.79688 11.4385C6.76562 11.4072 6.72396 11.3916 6.67188 11.3916ZM10.9375 5.54785H10.7344V4.15723C10.7344 3.60514 10.6302 3.0791 10.4219 2.5791C10.2135 2.0791 9.91667 1.63639 9.53125 1.25098C9.16667 0.86556 8.73698 0.568685 8.24219 0.360352C7.7474 0.152019 7.22396 0.0478516 6.67188 0.0478516C6.11979 0.0478516 5.59375 0.152019 5.09375 0.360352C4.59375 0.568685 4.15104 0.86556 3.76562 1.25098C3.38021 1.63639 3.08333 2.0791 2.875 2.5791C2.66667 3.0791 2.5625 3.60514 2.5625 4.15723V5.54785H2.375C1.71875 5.54785 1.15885 5.77962 0.695312 6.24316C0.231771 6.70671 0 7.2666 0 7.92285V13.0479C0 13.7041 0.231771 14.264 0.695312 14.7275C1.15885 15.1911 1.71875 15.4229 2.375 15.4229H10.9375C11.5833 15.4229 12.138 15.1911 12.6016 14.7275C13.0651 14.264 13.2969 13.7041 13.2969 13.0479V7.8916C13.2969 7.23535 13.0651 6.68066 12.6016 6.22754C12.138 5.77441 11.5833 5.54785 10.9375 5.54785ZM3.875 4.15723C3.875 3.79264 3.94531 3.43327 4.08594 3.0791C4.22656 2.72493 4.43229 2.41764 4.70312 2.15723C4.97396 1.88639 5.27865 1.67806 5.61719 1.53223C5.95573 1.38639 6.31771 1.31348 6.70312 1.31348C7.06771 1.31348 7.42448 1.38639 7.77344 1.53223C8.1224 1.67806 8.43229 1.88639 8.70312 2.15723C8.97396 2.41764 9.17969 2.71973 9.32031 3.06348C9.46094 3.40723 9.53125 3.77181 9.53125 4.15723V5.54785H3.875V4.15723ZM12 13.0166C12 13.3187 11.8984 13.5713 11.6953 13.7744C11.4922 13.9775 11.2396 14.0791 10.9375 14.0791H2.40625C2.10417 14.0791 1.85156 13.9775 1.64844 13.7744C1.44531 13.5713 1.34375 13.3187 1.34375 13.0166V7.8916C1.34375 7.58952 1.44531 7.33431 1.64844 7.12598C1.85156 6.91764 2.10417 6.81348 2.40625 6.81348H10.9688C11.2708 6.81348 11.5234 6.91764 11.7266 7.12598C11.9297 7.33431 12.0312 7.58952 12.0312 7.8916V13.0166H12ZM6.67188 10.2822C6.31771 10.2822 6.01302 10.4072 5.75781 10.6572C5.5026 10.9072 5.375 11.2145 5.375 11.5791C5.375 11.9333 5.5 12.2406 5.75 12.501C6 12.7614 6.30729 12.8916 6.67188 12.8916C7.01562 12.8916 7.31771 12.7666 7.57812 12.5166C7.83854 12.2666 7.96875 11.9541 7.96875 11.5791C7.94792 11.2145 7.8125 10.9072 7.5625 10.6572C7.3125 10.4072 7.01562 10.2822 6.67188 10.2822Z" fill="#757C8E"/>
</svg>
