<svg width="14" height="16" viewBox="0 0 14 16" fill="none" xmlns="http://www.w3.org/2000/svg">
<path d="M6.67188 11.792C6.61979 11.792 6.57292 11.8076 6.53125 11.8389C6.48958 11.8701 6.46875 11.917 6.46875 11.9795C6.46875 12.0316 6.48438 12.0785 6.51562 12.1201C6.54688 12.1618 6.59896 12.1826 6.67188 12.1826C6.72396 12.1826 6.77083 12.167 6.8125 12.1357C6.85417 12.1045 6.875 12.0524 6.875 11.9795C6.85417 11.917 6.82812 11.8701 6.79688 11.8389C6.76562 11.8076 6.72396 11.792 6.67188 11.792ZM10.9375 5.94824H10.7344V4.55762C10.7344 4.00553 10.6302 3.47949 10.4219 2.97949C10.2135 2.47949 9.91667 2.03678 9.53125 1.65137C9.16667 1.26595 8.73698 0.969075 8.24219 0.760742C7.7474 0.552409 7.22396 0.448242 6.67188 0.448242C6.11979 0.448242 5.59375 0.552409 5.09375 0.760742C4.59375 0.969075 4.15104 1.26595 3.76562 1.65137C3.38021 2.03678 3.08333 2.47949 2.875 2.97949C2.66667 3.47949 2.5625 4.00553 2.5625 4.55762V5.94824H2.375C1.71875 5.94824 1.15885 6.18001 0.695312 6.64355C0.231771 7.1071 0 7.66699 0 8.32324V13.4482C0 14.1045 0.231771 14.6644 0.695312 15.1279C1.15885 15.5915 1.71875 15.8232 2.375 15.8232H10.9375C11.5833 15.8232 12.138 15.5915 12.6016 15.1279C13.0651 14.6644 13.2969 14.1045 13.2969 13.4482V8.29199C13.2969 7.63574 13.0651 7.08105 12.6016 6.62793C12.138 6.1748 11.5833 5.94824 10.9375 5.94824ZM3.875 4.55762C3.875 4.19303 3.94531 3.83366 4.08594 3.47949C4.22656 3.12533 4.43229 2.81803 4.70312 2.55762C4.97396 2.28678 5.27865 2.07845 5.61719 1.93262C5.95573 1.78678 6.31771 1.71387 6.70312 1.71387C7.06771 1.71387 7.42448 1.78678 7.77344 1.93262C8.1224 2.07845 8.43229 2.28678 8.70312 2.55762C8.97396 2.81803 9.17969 3.12012 9.32031 3.46387C9.46094 3.80762 9.53125 4.1722 9.53125 4.55762V5.94824H3.875V4.55762ZM12 13.417C12 13.7191 11.8984 13.9717 11.6953 14.1748C11.4922 14.3779 11.2396 14.4795 10.9375 14.4795H2.40625C2.10417 14.4795 1.85156 14.3779 1.64844 14.1748C1.44531 13.9717 1.34375 13.7191 1.34375 13.417V8.29199C1.34375 7.98991 1.44531 7.7347 1.64844 7.52637C1.85156 7.31803 2.10417 7.21387 2.40625 7.21387H10.9688C11.2708 7.21387 11.5234 7.31803 11.7266 7.52637C11.9297 7.7347 12.0312 7.98991 12.0312 8.29199V13.417H12ZM6.67188 10.6826C6.31771 10.6826 6.01302 10.8076 5.75781 11.0576C5.5026 11.3076 5.375 11.6149 5.375 11.9795C5.375 12.3337 5.5 12.641 5.75 12.9014C6 13.1618 6.30729 13.292 6.67188 13.292C7.01562 13.292 7.31771 13.167 7.57812 12.917C7.83854 12.667 7.96875 12.3545 7.96875 11.9795C7.94792 11.6149 7.8125 11.3076 7.5625 11.0576C7.3125 10.8076 7.01562 10.6826 6.67188 10.6826Z" fill="#757C8E"/>
</svg>
