<svg width="7" height="7" viewBox="0 0 7 7" fill="none" xmlns="http://www.w3.org/2000/svg">
<path d="M3.68994 6.36035C4.104 6.36035 4.49463 6.28223 4.86182 6.12598C5.22119 5.96973 5.5376 5.75488 5.81104 5.48145C6.08447 5.20801 6.29932 4.8916 6.45557 4.53223C6.61182 4.16504 6.68994 3.77441 6.68994 3.36035C6.68994 2.94629 6.61182 2.55566 6.45557 2.18848C6.29932 1.8291 6.08447 1.5127 5.81104 1.23926C5.5376 0.96582 5.22119 0.750977 4.86182 0.594727C4.49463 0.438477 4.104 0.360352 3.68994 0.360352C3.27588 0.360352 2.88525 0.438477 2.51807 0.594727C2.15869 0.750977 1.84229 0.96582 1.56885 1.23926C1.29541 1.5127 1.08057 1.8291 0.924316 2.18848C0.768066 2.55566 0.689941 2.94629 0.689941 3.36035C0.689941 3.77441 0.768066 4.16504 0.924316 4.53223C1.08057 4.8916 1.29541 5.20801 1.56885 5.48145C1.84229 5.75488 2.15869 5.96973 2.51807 6.12598C2.88525 6.28223 3.27588 6.36035 3.68994 6.36035Z" fill="#757C8E"/>
</svg>
