<svg width="7" height="7" viewBox="0 0 7 7" fill="none" xmlns="http://www.w3.org/2000/svg">
<path d="M3.68994 6.77051C4.104 6.77051 4.49463 6.69238 4.86182 6.53613C5.22119 6.37988 5.5376 6.16504 5.81104 5.8916C6.08447 5.61816 6.29932 5.30176 6.45557 4.94238C6.61182 4.5752 6.68994 4.18457 6.68994 3.77051C6.68994 3.35645 6.61182 2.96582 6.45557 2.59863C6.29932 2.23926 6.08447 1.92285 5.81104 1.64941C5.5376 1.37598 5.22119 1.16113 4.86182 1.00488C4.49463 0.848633 4.104 0.770508 3.68994 0.770508C3.27588 0.770508 2.88525 0.848633 2.51807 1.00488C2.15869 1.16113 1.84229 1.37598 1.56885 1.64941C1.29541 1.92285 1.08057 2.23926 0.924316 2.59863C0.768066 2.96582 0.689941 3.35645 0.689941 3.77051C0.689941 4.18457 0.768066 4.5752 0.924316 4.94238C1.08057 5.30176 1.29541 5.61816 1.56885 5.8916C1.84229 6.16504 2.15869 6.37988 2.51807 6.53613C2.88525 6.69238 3.27588 6.77051 3.68994 6.77051Z" fill="#757C8E"/>
</svg>
