<svg width="6" height="7" viewBox="0 0 6 7" fill="none" xmlns="http://www.w3.org/2000/svg">
<path d="M3 6.16992C3.41406 6.16992 3.80469 6.0918 4.17188 5.93555C4.53125 5.7793 4.84766 5.56445 5.12109 5.29102C5.39453 5.01758 5.60938 4.70117 5.76562 4.3418C5.92188 3.97461 6 3.58398 6 3.16992C6 2.75586 5.92188 2.36523 5.76562 1.99805C5.60938 1.63867 5.39453 1.32227 5.12109 1.04883C4.84766 0.775391 4.53125 0.560547 4.17188 0.404297C3.80469 0.248047 3.41406 0.169922 3 0.169922C2.58594 0.169922 2.19531 0.248047 1.82812 0.404297C1.46875 0.560547 1.15234 0.775391 0.878906 1.04883C0.605469 1.32227 0.390625 1.63867 0.234375 1.99805C0.078125 2.36523 0 2.75586 0 3.16992C0 3.58398 0.078125 3.97461 0.234375 4.3418C0.390625 4.70117 0.605469 5.01758 0.878906 5.29102C1.15234 5.56445 1.46875 5.7793 1.82812 5.93555C2.19531 6.0918 2.58594 6.16992 3 6.16992Z" fill="#757C8E"/>
</svg>
