<svg width="6" height="7" viewBox="0 0 6 7" fill="none" xmlns="http://www.w3.org/2000/svg">
<path d="M3 6.18945C3.41406 6.18945 3.80469 6.11133 4.17188 5.95508C4.53125 5.79883 4.84766 5.58398 5.12109 5.31055C5.39453 5.03711 5.60938 4.7207 5.76562 4.36133C5.92188 3.99414 6 3.60352 6 3.18945C6 2.77539 5.92188 2.38477 5.76562 2.01758C5.60938 1.6582 5.39453 1.3418 5.12109 1.06836C4.84766 0.794922 4.53125 0.580078 4.17188 0.423828C3.80469 0.267578 3.41406 0.189453 3 0.189453C2.58594 0.189453 2.19531 0.267578 1.82812 0.423828C1.46875 0.580078 1.15234 0.794922 0.878906 1.06836C0.605469 1.3418 0.390625 1.6582 0.234375 2.01758C0.078125 2.38477 0 2.77539 0 3.18945C0 3.60352 0.078125 3.99414 0.234375 4.36133C0.390625 4.7207 0.605469 5.03711 0.878906 5.31055C1.15234 5.58398 1.46875 5.79883 1.82812 5.95508C2.19531 6.11133 2.58594 6.18945 3 6.18945Z" fill="#757C8E"/>
</svg>
