<svg width="11" height="17" viewBox="0 0 11 17" fill="none" xmlns="http://www.w3.org/2000/svg">
<path d="M0 1.43555C0 1.24805 0.0651042 1.08659 0.195312 0.951172C0.325521 0.815755 0.484375 0.748047 0.671875 0.748047C0.859375 0.748047 1.01823 0.815755 1.14844 0.951172C1.27865 1.08659 1.34375 1.24805 1.34375 1.43555V15.4043C1.34375 15.5918 1.27865 15.7533 1.14844 15.8887C1.01823 16.0241 0.859375 16.0918 0.671875 16.0918C0.484375 16.0918 0.325521 16.0241 0.195312 15.8887C0.0651042 15.7533 0 15.5918 0 15.4043V1.43555ZM4.8125 5.2168C4.8125 5.03971 4.875 4.89128 5 4.77148C5.125 4.65169 5.27083 4.5918 5.4375 4.5918C5.61458 4.5918 5.76302 4.65169 5.88281 4.77148C6.0026 4.89128 6.0625 5.03971 6.0625 5.2168V15.4668C6.0625 15.6335 6.0026 15.7793 5.88281 15.9043C5.76302 16.0293 5.61458 16.0918 5.4375 16.0918C5.27083 16.0918 5.125 16.0293 5 15.9043C4.875 15.7793 4.8125 15.6335 4.8125 15.4668V5.2168ZM10.2188 7.4668C10.0521 7.4668 9.91146 7.52148 9.79688 7.63086C9.68229 7.74023 9.625 7.87825 9.625 8.04492V15.5137C9.625 15.6699 9.68229 15.8053 9.79688 15.9199C9.91146 16.0345 10.0521 16.0918 10.2188 16.0918C10.375 16.0918 10.5104 16.0345 10.625 15.9199C10.7396 15.8053 10.7969 15.6699 10.7969 15.5137V8.04492C10.7969 7.87825 10.7396 7.74023 10.625 7.63086C10.5104 7.52148 10.375 7.4668 10.2188 7.4668Z" fill="#212327"/>
</svg>
