<svg width="6" height="7" viewBox="0 0 6 7" fill="none" xmlns="http://www.w3.org/2000/svg">
<path d="M3 6.13965C3.41406 6.13965 3.80469 6.06152 4.17188 5.90527C4.53125 5.74902 4.84766 5.53418 5.12109 5.26074C5.39453 4.9873 5.60938 4.6709 5.76562 4.31152C5.92188 3.94434 6 3.55371 6 3.13965C6 2.72559 5.92188 2.33496 5.76562 1.96777C5.60938 1.6084 5.39453 1.29199 5.12109 1.01855C4.84766 0.745117 4.53125 0.530273 4.17188 0.374023C3.80469 0.217773 3.41406 0.139648 3 0.139648C2.58594 0.139648 2.19531 0.217773 1.82812 0.374023C1.46875 0.530273 1.15234 0.745117 0.878906 1.01855C0.605469 1.29199 0.390625 1.6084 0.234375 1.96777C0.078125 2.33496 0 2.72559 0 3.13965C0 3.55371 0.078125 3.94434 0.234375 4.31152C0.390625 4.6709 0.605469 4.9873 0.878906 5.26074C1.15234 5.53418 1.46875 5.74902 1.82812 5.90527C2.19531 6.06152 2.58594 6.13965 3 6.13965Z" fill="#757C8E"/>
</svg>
