<svg width="14" height="16" viewBox="0 0 14 16" fill="none" xmlns="http://www.w3.org/2000/svg">
<path d="M6.67188 11.5918C6.61979 11.5918 6.57292 11.6074 6.53125 11.6387C6.48958 11.6699 6.46875 11.7168 6.46875 11.7793C6.46875 11.8314 6.48438 11.8783 6.51562 11.9199C6.54688 11.9616 6.59896 11.9824 6.67188 11.9824C6.72396 11.9824 6.77083 11.9668 6.8125 11.9355C6.85417 11.9043 6.875 11.8522 6.875 11.7793C6.85417 11.7168 6.82812 11.6699 6.79688 11.6387C6.76562 11.6074 6.72396 11.5918 6.67188 11.5918ZM10.9375 5.74805H10.7344V4.35742C10.7344 3.80534 10.6302 3.2793 10.4219 2.7793C10.2135 2.2793 9.91667 1.83659 9.53125 1.45117C9.16667 1.06575 8.73698 0.76888 8.24219 0.560547C7.7474 0.352214 7.22396 0.248047 6.67188 0.248047C6.11979 0.248047 5.59375 0.352214 5.09375 0.560547C4.59375 0.76888 4.15104 1.06575 3.76562 1.45117C3.38021 1.83659 3.08333 2.2793 2.875 2.7793C2.66667 3.2793 2.5625 3.80534 2.5625 4.35742V5.74805H2.375C1.71875 5.74805 1.15885 5.97982 0.695312 6.44336C0.231771 6.9069 0 7.4668 0 8.12305V13.248C0 13.9043 0.231771 14.4642 0.695312 14.9277C1.15885 15.3913 1.71875 15.623 2.375 15.623H10.9375C11.5833 15.623 12.138 15.3913 12.6016 14.9277C13.0651 14.4642 13.2969 13.9043 13.2969 13.248V8.0918C13.2969 7.43555 13.0651 6.88086 12.6016 6.42773C12.138 5.97461 11.5833 5.74805 10.9375 5.74805ZM3.875 4.35742C3.875 3.99284 3.94531 3.63346 4.08594 3.2793C4.22656 2.92513 4.43229 2.61784 4.70312 2.35742C4.97396 2.08659 5.27865 1.87825 5.61719 1.73242C5.95573 1.58659 6.31771 1.51367 6.70312 1.51367C7.06771 1.51367 7.42448 1.58659 7.77344 1.73242C8.1224 1.87825 8.43229 2.08659 8.70312 2.35742C8.97396 2.61784 9.17969 2.91992 9.32031 3.26367C9.46094 3.60742 9.53125 3.972 9.53125 4.35742V5.74805H3.875V4.35742ZM12 13.2168C12 13.5189 11.8984 13.7715 11.6953 13.9746C11.4922 14.1777 11.2396 14.2793 10.9375 14.2793H2.40625C2.10417 14.2793 1.85156 14.1777 1.64844 13.9746C1.44531 13.7715 1.34375 13.5189 1.34375 13.2168V8.0918C1.34375 7.78971 1.44531 7.5345 1.64844 7.32617C1.85156 7.11784 2.10417 7.01367 2.40625 7.01367H10.9688C11.2708 7.01367 11.5234 7.11784 11.7266 7.32617C11.9297 7.5345 12.0312 7.78971 12.0312 8.0918V13.2168H12ZM6.67188 10.4824C6.31771 10.4824 6.01302 10.6074 5.75781 10.8574C5.5026 11.1074 5.375 11.4147 5.375 11.7793C5.375 12.1335 5.5 12.4408 5.75 12.7012C6 12.9616 6.30729 13.0918 6.67188 13.0918C7.01562 13.0918 7.31771 12.9668 7.57812 12.7168C7.83854 12.4668 7.96875 12.1543 7.96875 11.7793C7.94792 11.4147 7.8125 11.1074 7.5625 10.8574C7.3125 10.6074 7.01562 10.4824 6.67188 10.4824Z" fill="#757C8E"/>
</svg>
