<svg width="9" height="14" viewBox="0 0 9 14" fill="none" xmlns="http://www.w3.org/2000/svg">
<path d="M1.9375 13.5576C1.90625 13.5993 1.86979 13.6331 1.82812 13.6592C1.78646 13.6852 1.74479 13.7035 1.70312 13.7139C1.66146 13.7347 1.61719 13.7503 1.57031 13.7607C1.52344 13.7712 1.47396 13.7764 1.42188 13.7764C1.36979 13.7764 1.32292 13.7712 1.28125 13.7607C1.23958 13.7503 1.19792 13.7347 1.15625 13.7139C1.10417 13.7035 1.0599 13.6852 1.02344 13.6592C0.986979 13.6331 0.953125 13.5993 0.921875 13.5576L0.234375 12.8857C0.203125 12.8545 0.174479 12.818 0.148438 12.7764C0.122396 12.7347 0.0989583 12.693 0.078125 12.6514C0.0572917 12.6097 0.0390625 12.5628 0.0234375 12.5107C0.0078125 12.4587 0 12.4118 0 12.3701C0 12.318 0.00260417 12.2686 0.0078125 12.2217C0.0130208 12.1748 0.0260417 12.1253 0.046875 12.0732C0.0572917 12.0316 0.0755208 11.9899 0.101562 11.9482C0.127604 11.9066 0.15625 11.8701 0.1875 11.8389L4.95312 7.10449L0.203125 2.37012C0.171875 2.33887 0.140625 2.30241 0.109375 2.26074C0.078125 2.21908 0.0572917 2.17741 0.046875 2.13574C0.0260417 2.08366 0.0130208 2.03418 0.0078125 1.9873C0.00260417 1.94043 0 1.89095 0 1.83887C0 1.7972 0.0078125 1.75033 0.0234375 1.69824C0.0390625 1.64616 0.0572917 1.59928 0.078125 1.55762C0.0989583 1.51595 0.122396 1.47428 0.148438 1.43262C0.174479 1.39095 0.203125 1.35449 0.234375 1.32324L0.90625 0.651367C0.947917 0.6097 0.986979 0.575847 1.02344 0.549805C1.0599 0.523763 1.09896 0.505534 1.14062 0.495117C1.18229 0.474284 1.22656 0.458659 1.27344 0.448242C1.32031 0.437825 1.36458 0.432617 1.40625 0.432617C1.45833 0.432617 1.51042 0.437825 1.5625 0.448242C1.61458 0.458659 1.66146 0.474284 1.70312 0.495117C1.74479 0.505534 1.78646 0.523763 1.82812 0.549805C1.86979 0.575847 1.90625 0.6097 1.9375 0.651367L7.875 6.58887C7.91667 6.62012 7.95312 6.65397 7.98438 6.69043C8.01562 6.72689 8.04167 6.77116 8.0625 6.82324C8.08333 6.86491 8.09896 6.90918 8.10938 6.95605C8.11979 7.00293 8.125 7.05241 8.125 7.10449C8.125 7.15658 8.11979 7.20605 8.10938 7.25293C8.09896 7.2998 8.08333 7.34408 8.0625 7.38574C8.04167 7.43783 8.01562 7.4821 7.98438 7.51855C7.95312 7.55501 7.91667 7.58887 7.875 7.62012L1.9375 13.5576Z" fill="#3E64DE"/>
</svg>
