<svg width="6" height="7" viewBox="0 0 6 7" fill="none" xmlns="http://www.w3.org/2000/svg">
<path d="M3 6.36035C3.41406 6.36035 3.80469 6.28223 4.17188 6.12598C4.53125 5.96973 4.84766 5.75488 5.12109 5.48145C5.39453 5.20801 5.60938 4.8916 5.76562 4.53223C5.92188 4.16504 6 3.77441 6 3.36035C6 2.94629 5.92188 2.55566 5.76562 2.18848C5.60938 1.8291 5.39453 1.5127 5.12109 1.23926C4.84766 0.96582 4.53125 0.750977 4.17188 0.594727C3.80469 0.438477 3.41406 0.360352 3 0.360352C2.58594 0.360352 2.19531 0.438477 1.82812 0.594727C1.46875 0.750977 1.15234 0.96582 0.878906 1.23926C0.605469 1.5127 0.390625 1.8291 0.234375 2.18848C0.078125 2.55566 0 2.94629 0 3.36035C0 3.77441 0.078125 4.16504 0.234375 4.53223C0.390625 4.8916 0.605469 5.20801 0.878906 5.48145C1.15234 5.75488 1.46875 5.96973 1.82812 6.12598C2.19531 6.28223 2.58594 6.36035 3 6.36035Z" fill="#757C8E"/>
</svg>
