<svg width="7" height="7" viewBox="0 0 7 7" fill="none" xmlns="http://www.w3.org/2000/svg">
<path d="M3.83984 6.73047C4.25391 6.73047 4.64453 6.65234 5.01172 6.49609C5.37109 6.33984 5.6875 6.125 5.96094 5.85156C6.23438 5.57812 6.44922 5.26172 6.60547 4.90234C6.76172 4.53516 6.83984 4.14453 6.83984 3.73047C6.83984 3.31641 6.76172 2.92578 6.60547 2.55859C6.44922 2.19922 6.23438 1.88281 5.96094 1.60938C5.6875 1.33594 5.37109 1.12109 5.01172 0.964844C4.64453 0.808594 4.25391 0.730469 3.83984 0.730469C3.42578 0.730469 3.03516 0.808594 2.66797 0.964844C2.30859 1.12109 1.99219 1.33594 1.71875 1.60938C1.44531 1.88281 1.23047 2.19922 1.07422 2.55859C0.917969 2.92578 0.839844 3.31641 0.839844 3.73047C0.839844 4.14453 0.917969 4.53516 1.07422 4.90234C1.23047 5.26172 1.44531 5.57812 1.71875 5.85156C1.99219 6.125 2.30859 6.33984 2.66797 6.49609C3.03516 6.65234 3.42578 6.73047 3.83984 6.73047Z" fill="#757C8E"/>
</svg>
