<svg width="6" height="7" viewBox="0 0 6 7" fill="none" xmlns="http://www.w3.org/2000/svg">
<path d="M3 6.77051C3.41406 6.77051 3.80469 6.69238 4.17188 6.53613C4.53125 6.37988 4.84766 6.16504 5.12109 5.8916C5.39453 5.61816 5.60938 5.30176 5.76562 4.94238C5.92188 4.5752 6 4.18457 6 3.77051C6 3.35645 5.92188 2.96582 5.76562 2.59863C5.60938 2.23926 5.39453 1.92285 5.12109 1.64941C4.84766 1.37598 4.53125 1.16113 4.17188 1.00488C3.80469 0.848633 3.41406 0.770508 3 0.770508C2.58594 0.770508 2.19531 0.848633 1.82812 1.00488C1.46875 1.16113 1.15234 1.37598 0.878906 1.64941C0.605469 1.92285 0.390625 2.23926 0.234375 2.59863C0.078125 2.96582 0 3.35645 0 3.77051C0 4.18457 0.078125 4.5752 0.234375 4.94238C0.390625 5.30176 0.605469 5.61816 0.878906 5.8916C1.15234 6.16504 1.46875 6.37988 1.82812 6.53613C2.19531 6.69238 2.58594 6.77051 3 6.77051Z" fill="#757C8E"/>
</svg>
