<svg width="7" height="7" viewBox="0 0 7 7" fill="none" xmlns="http://www.w3.org/2000/svg">
<path d="M3.68994 6.13965C4.104 6.13965 4.49463 6.06152 4.86182 5.90527C5.22119 5.74902 5.5376 5.53418 5.81104 5.26074C6.08447 4.9873 6.29932 4.6709 6.45557 4.31152C6.61182 3.94434 6.68994 3.55371 6.68994 3.13965C6.68994 2.72559 6.61182 2.33496 6.45557 1.96777C6.29932 1.6084 6.08447 1.29199 5.81104 1.01855C5.5376 0.745117 5.22119 0.530273 4.86182 0.374023C4.49463 0.217773 4.104 0.139648 3.68994 0.139648C3.27588 0.139648 2.88525 0.217773 2.51807 0.374023C2.15869 0.530273 1.84229 0.745117 1.56885 1.01855C1.29541 1.29199 1.08057 1.6084 0.924316 1.96777C0.768066 2.33496 0.689941 2.72559 0.689941 3.13965C0.689941 3.55371 0.768066 3.94434 0.924316 4.31152C1.08057 4.6709 1.29541 4.9873 1.56885 5.26074C1.84229 5.53418 2.15869 5.74902 2.51807 5.90527C2.88525 6.06152 3.27588 6.13965 3.68994 6.13965Z" fill="#757C8E"/>
</svg>
