<svg width="16" height="17" viewBox="0 0 16 17" fill="none" xmlns="http://www.w3.org/2000/svg">
<path d="M1.5 8.00977C1.5 7.11393 1.67188 6.27018 2.01562 5.47852C2.34896 4.68685 2.8099 3.99675 3.39844 3.4082C3.98698 2.81966 4.67708 2.35872 5.46875 2.02539C6.26042 1.68164 7.10417 1.50977 8 1.50977C8.89583 1.50977 9.73958 1.68164 10.5312 2.02539C11.3229 2.35872 12.013 2.81966 12.6016 3.4082C13.1901 3.99675 13.651 4.68685 13.9844 5.47852C14.3281 6.27018 14.5 7.11393 14.5 8.00977C14.5 8.9056 14.3281 9.74935 13.9844 10.541C13.651 11.3327 13.1901 12.0228 12.6016 12.6113C12.013 13.1999 11.3229 13.6608 10.5312 13.9941C9.73958 14.3379 8.89583 14.5098 8 14.5098C7.10417 14.5098 6.26042 14.3379 5.46875 13.9941C4.67708 13.6608 3.98698 13.1999 3.39844 12.6113C2.8099 12.0228 2.34896 11.3327 2.01562 10.541C1.67188 9.74935 1.5 8.9056 1.5 8.00977ZM8 0.00976562C6.89583 0.00976562 5.85938 0.218099 4.89062 0.634766C3.91146 1.05143 3.0599 1.62175 2.33594 2.3457C1.61198 3.06966 1.04167 3.92122 0.625 4.90039C0.208333 5.86914 0 6.9056 0 8.00977C0 9.11393 0.208333 10.1504 0.625 11.1191C1.04167 12.0983 1.61198 12.9499 2.33594 13.6738C3.0599 14.3978 3.91146 14.9681 4.89062 15.3848C5.85938 15.8014 6.89583 16.0098 8 16.0098C9.10417 16.0098 10.1406 15.8014 11.1094 15.3848C12.0885 14.9681 12.9401 14.3978 13.6641 13.6738C14.388 12.9499 14.9583 12.0983 15.375 11.1191C15.7917 10.1504 16 9.11393 16 8.00977C16 6.9056 15.7917 5.86914 15.375 4.90039C14.9583 3.92122 14.388 3.06966 13.6641 2.3457C12.9401 1.62175 12.0885 1.05143 11.1094 0.634766C10.1406 0.218099 9.10417 0.00976562 8 0.00976562ZM8.75 3.66602C8.75 3.45768 8.67708 3.2806 8.53125 3.13477C8.38542 2.98893 8.20833 2.91602 8 2.91602C7.79167 2.91602 7.61458 2.98893 7.46875 3.13477C7.32292 3.2806 7.25 3.45768 7.25 3.66602V8.00977C7.25 8.1556 7.28646 8.28841 7.35938 8.4082C7.43229 8.52799 7.53646 8.61914 7.67188 8.68164L10.5625 10.1348C10.75 10.2285 10.9427 10.2415 11.1406 10.1738C11.3385 10.1061 11.4844 9.97852 11.5781 9.79102C11.6615 9.60352 11.6719 9.41341 11.6094 9.2207C11.5469 9.02799 11.4219 8.88477 11.2344 8.79102L8.75 7.54102V3.66602Z" fill="#212327"/>
</svg>
